<?xml version="1.0" standalone="no"?><!DOCTYPE svg PUBLIC "-//W3C//DTD SVG 1.1//EN" "http://www.w3.org/Graphics/SVG/1.1/DTD/svg11.dtd"><svg t="1591874114396" class="icon" viewBox="0 0 1024 1024" version="1.1" xmlns="http://www.w3.org/2000/svg" p-id="3155" xmlns:xlink="http://www.w3.org/1999/xlink" width="48" height="48"><defs><style type="text/css"></style></defs><path d="M790.7 98.2H421v92h114.7v92H421V375h114.7v92H421v81.4h114.7v148.5c0 19.1-14.2 35.4-33.3 35.4H341.1c-19.1 0-36.4-16.3-36.4-35.4V466.8H421v-92H304.7V282H421v-92H304.7V98h-67.4C160.9 98.2 98 159.1 98 235.5v553.4c0 76.4 62.9 139.3 139.3 139.3h553.4c76.4 0 137.3-62.9 137.3-139.3V235.5c0-76.4-60.9-137.3-137.3-137.3z m0 0" p-id="3156"></path><path d="M351.9 594.6h138.3v92H351.9z" p-id="3157"></path></svg>